<svg width="45" height="45" viewBox="0 0 45 45" fill="none" xmlns="http://www.w3.org/2000/svg">
<path d="M31.1309 27.8616H29.4164L28.8088 27.276C30.1651 25.7012 31.1563 23.8464 31.7116 21.8441C32.2668 19.8418 32.3724 17.7416 32.0207 15.6938C31.0007 9.66408 25.9658 4.84901 19.8892 4.11157C17.7528 3.84146 15.583 4.06336 13.5456 4.76028C11.5083 5.4572 9.65752 6.61068 8.13486 8.13244C6.61221 9.6542 5.45806 11.5039 4.76073 13.5401C4.06339 15.5762 3.84137 17.7448 4.11164 19.8798C4.84951 25.9529 9.66741 30.9849 15.7006 32.0043C17.7496 32.3558 19.8511 32.2503 21.8545 31.6953C23.858 31.1404 25.714 30.1497 27.2896 28.7942L27.8756 29.4015V31.115L37.099 40.333C37.9888 41.2223 39.4429 41.2223 40.3327 40.333C41.2224 39.4438 41.2224 37.9906 40.3327 37.1013L31.1309 27.8616ZM18.1096 27.8616C12.7057 27.8616 8.34357 23.502 8.34357 18.1013C8.34357 12.7006 12.7057 8.34102 18.1096 8.34102C23.5134 8.34102 27.8756 12.7006 27.8756 18.1013C27.8756 23.502 23.5134 27.8616 18.1096 27.8616Z" fill="#FCFCFC"/>
</svg>
