<svg width="41" height="39" viewBox="0 0 41 39" fill="none" xmlns="http://www.w3.org/2000/svg">
<path d="M39.5942 19.1924L21.4932 1.10452C21.3628 0.97393 21.208 0.870327 21.0376 0.799639C20.8672 0.728951 20.6845 0.692566 20.5 0.692566C20.3155 0.692566 20.1328 0.728951 19.9624 0.799639C19.792 0.870327 19.6372 0.97393 19.5068 1.10452L1.40576 19.1924C0.878418 19.7198 0.57959 20.4361 0.57959 21.1831C0.57959 22.7344 1.84082 23.9956 3.39209 23.9956H5.29932V36.9024C5.29932 37.6802 5.92773 38.3086 6.70557 38.3086H17.6875V28.4649H22.6094V38.3086H34.2944C35.0723 38.3086 35.7007 37.6802 35.7007 36.9024V23.9956H37.6079C38.355 23.9956 39.0713 23.7012 39.5986 23.1695C40.6929 22.0708 40.6929 20.291 39.5942 19.1924Z" fill="#FCFCFC"/>
</svg>
